<svg width="45" height="48" viewBox="0 0 45 48" fill="none" xmlns="http://www.w3.org/2000/svg">
<path d="M44.1461 15.3813L23.5797 1.22115C22.8777 0.775009 22.1285 0.770924 21.4201 1.22115L0.853768 15.3813C0.326425 15.7443 0 16.3928 0 17.0411V31.2012C0 31.8496 0.326425 32.4979 0.853856 32.861L21.4202 47.0232C22.1222 47.4693 22.8714 47.4734 23.5798 47.0232L44.1461 32.861C44.6735 32.498 45 31.8496 45 31.2012V17.0411C44.9999 16.3928 44.6735 15.7443 44.1461 15.3813ZM24.4335 6.61536L39.5758 17.0411L32.8208 21.7093L24.4335 15.9259V6.61536ZM20.5664 6.61536V15.9259L12.1791 21.7093L5.42407 17.0411L20.5664 6.61536ZM3.86718 20.7757L8.71372 24.1212L3.86718 27.4667V20.7757ZM20.5664 41.627L5.42407 31.2013L12.1791 26.533L20.5664 32.3165V41.627ZM22.5 28.8412L15.6695 24.1212L22.5 19.4011L29.3304 24.1212L22.5 28.8412ZM24.4335 41.627V32.3165L32.8208 26.533L39.5758 31.2013L24.4335 41.627ZM41.1327 27.4667L36.2862 24.1212L41.1327 20.7757V27.4667Z" fill="#27AE60"/>
</svg>
